<?xml version="1.0" encoding="UTF-8" standalone="no"?>
<svg
   xmlns:dc="http://purl.org/dc/elements/1.1/"
   xmlns:cc="http://creativecommons.org/ns#"
   xmlns:rdf="http://www.w3.org/1999/02/22-rdf-syntax-ns#"
   xmlns:svg="http://www.w3.org/2000/svg"
   xmlns="http://www.w3.org/2000/svg"
   id="svg8"
   version="1.1"
   viewBox="0 0 210 297"
   height="297mm"
   width="210mm">
  <title
     id="title18">apple</title>
  <defs
     id="defs2" />
  <metadata
     id="metadata5">
    <rdf:RDF>
      <cc:Work
         rdf:about="">
        <dc:format>image/svg+xml</dc:format>
        <dc:type
           rdf:resource="http://purl.org/dc/dcmitype/StillImage" />
        <dc:title>apple</dc:title>
      </cc:Work>
    </rdf:RDF>
  </metadata>
  <g
     id="layer1">
    <path
       id="path12"
       d="M 111.125,104.23215 91.470237,96.672617 C 60.47619,81.553569 32.054887,97.253104 31.749999,123.13095 33.261904,197.21428 71.815476,225.18452 71.815476,225.18452 82.398809,238.79166 100.54167,233.5 100.54167,233.5 l 12.09524,-4.53572 9.82738,4.53572 c 0,0 18.8988,6.80357 34.01785,-9.82738 0,0 37.79762,-23.43452 35.52976,-105.83333 -0.75595,-30.238103 -52.91666,-37.797625 -71.81548,-21.922626 z"
       style="fill:#ff2a2a;stroke:#000000;stroke-width:0.26458332px;stroke-linecap:butt;stroke-linejoin:miter;stroke-opacity:1" />
    <path
       id="path14"
       d="M 111.125,104.23215 104.32143,74.75 l 7.55952,0.755952 c 0,0 4.53572,5.291667 3.77976,9.071427 -0.75595,3.779764 -4.53571,19.654771 -4.53571,19.654771 z"
       style="fill:#a05a2c;stroke:#000000;stroke-width:0.26458332px;stroke-linecap:butt;stroke-linejoin:miter;stroke-opacity:1" />
    <path
       id="path16"
       d="M 111.125,104.23215 C 104.32144,72.482149 68.791673,80.041679 68.791673,80.041679 c 0,0 10.204689,21.607431 42.333327,24.190471 z"
       style="fill:#5aa02c;stroke:#000000;stroke-width:0.26458332px;stroke-linecap:butt;stroke-linejoin:miter;stroke-opacity:1" />
  </g>
</svg>
