<?xml version="1.0" encoding="iso-8859-1"?>
<!-- Generator: Adobe Illustrator 19.0.0, SVG Export Plug-In . SVG Version: 6.00 Build 0)  -->
<svg version="1.1" id="Layer_1" xmlns="http://www.w3.org/2000/svg" xmlns:xlink="http://www.w3.org/1999/xlink" x="0px" y="0px"
	 viewBox="0 0 512 512" style="enable-background:new 0 0 512 512;" xml:space="preserve">
<path style="fill:#F94848;" d="M446.415,347.735c-81.02,81.02-212.39,81.02-293.41,0l146.704-246.313L446.415,347.735z"/>
<path style="fill:#23B75F;" d="M446.418,347.736H512c-48.851,48.862-160.62,70.51-224.039,60.414
	C344.904,411.383,402.917,391.237,446.418,347.736z"/>
<polygon style="fill:#C7F492;" points="484.217,301.082 512,347.736 446.418,347.736 418.635,301.082 "/>
<polygon style="fill:#F97D7D;" points="365.312,101.423 484.217,301.082 418.635,301.082 299.719,101.423 "/>
<path style="fill:#A3E261;" d="M446.415,347.736c-81.015,81.015-212.384,81.015-293.411,0l27.794-46.654
	c65.673,65.673,172.161,65.673,237.834,0L446.415,347.736z"/>
<path style="fill:#F94848;" d="M293.411,347.736c-81.02,81.02-212.39,81.02-293.41,0l146.705-246.313L293.411,347.736z"/>
<path style="fill:#23B75F;" d="M293.414,347.737h65.582c-48.851,48.862-160.62,70.51-224.039,60.414
	C191.9,411.384,249.913,391.238,293.414,347.737z"/>
<polygon style="fill:#C7F492;" points="331.213,301.083 358.996,347.737 293.414,347.737 265.631,301.083 "/>
<polygon style="fill:#F97D7D;" points="212.308,101.424 331.213,301.083 265.631,301.083 146.714,101.424 "/>
<path style="fill:#A3E261;" d="M293.411,347.737c-81.015,81.015-212.384,81.015-293.411,0l27.794-46.654
	c65.673,65.673,172.161,65.673,237.834,0L293.411,347.737z"/>
<g>
	<path style="fill:#4D4D4D;" d="M119.388,233.885c-7.671,0-11.398-9.814-5.668-14.914c2.752-2.448,6.896-2.833,10.058-0.947
		c2.934,1.749,4.546,5.199,4.055,8.574C127.232,230.731,123.558,233.885,119.388,233.885z"/>
	<path style="fill:#4D4D4D;" d="M172.939,265.845c-7.542,0-11.342-9.52-5.882-14.722c2.746-2.617,7.016-3.081,10.267-1.138
		c3.059,1.829,4.682,5.488,3.98,8.986C180.515,262.908,176.973,265.845,172.939,265.845z"/>
	<path style="fill:#4D4D4D;" d="M352.555,286.799c-3.486,0-6.698-2.225-7.952-5.468c-1.341-3.467-0.224-7.518,2.709-9.801
		c5.724-4.458,14.284,0.117,13.755,7.359C360.744,283.28,356.964,286.799,352.555,286.799z"/>
	<path style="fill:#4D4D4D;" d="M405.025,230.437c-7.605,0-11.359-9.651-5.793-14.802c5.705-5.28,15.245-0.39,14.26,7.316
		C412.952,227.177,409.3,230.437,405.025,230.437z"/>
	<path style="fill:#4D4D4D;" d="M321.471,203.234c-3.508,0-6.695-2.206-7.964-5.463c-1.386-3.56-0.14-7.733,2.941-9.98
		c6.317-4.607,15.225,1.443,13.294,9.008C328.789,200.532,325.333,203.234,321.471,203.234z"/>
	<path style="fill:#4D4D4D;" d="M245.68,222.663c-7.637,0-11.4-9.736-5.732-14.854c2.82-2.546,7.082-2.908,10.293-0.884
		c2.956,1.864,4.492,5.445,3.805,8.874C253.257,219.741,249.71,222.663,245.68,222.663z"/>
	<path style="fill:#4D4D4D;" d="M134.07,309.893c-3.561,0-6.835-2.315-8.028-5.665c-1.217-3.418-0.101-7.324,2.746-9.574
		c6.084-4.808,15.167,0.739,13.659,8.364C141.667,306.966,138.086,309.893,134.07,309.893z"/>
</g>
<g>
</g>
<g>
</g>
<g>
</g>
<g>
</g>
<g>
</g>
<g>
</g>
<g>
</g>
<g>
</g>
<g>
</g>
<g>
</g>
<g>
</g>
<g>
</g>
<g>
</g>
<g>
</g>
<g>
</g>
</svg>
