<?xml version="1.0" encoding="UTF-8" standalone="no"?>
<!DOCTYPE svg PUBLIC "-//W3C//DTD SVG 1.1//EN" "http://www.w3.org/Graphics/SVG/1.1/DTD/svg11.dtd">
<svg version="1.1" xmlns="http://www.w3.org/2000/svg" xmlns:xlink="http://www.w3.org/1999/xlink" preserveAspectRatio="xMidYMid meet" viewBox="0 0 640 640" width="40" height="40"><defs><path d="M445.12 14.46C544.76 14.46 625.54 95.24 625.54 194.88C625.54 281.01 625.54 358.99 625.54 445.12C625.54 544.76 544.76 625.54 445.12 625.54C358.99 625.54 281.01 625.54 194.88 625.54C95.24 625.54 14.46 544.76 14.46 445.12C14.46 358.99 14.46 281.01 14.46 194.88C14.46 95.24 95.24 14.46 194.88 14.46C281.01 14.46 358.99 14.46 445.12 14.46Z" id="d1sdzQCdtR"></path><path d="M402.03 67.01C496.45 67.01 572.99 143.55 572.99 237.97C572.99 304.97 572.99 335.03 572.99 402.03C572.99 496.45 496.45 572.99 402.03 572.99C335.03 572.99 304.97 572.99 237.97 572.99C143.55 572.99 67.01 496.45 67.01 402.03C67.01 335.03 67.01 304.97 67.01 237.97C67.01 143.55 143.55 67.01 237.97 67.01C304.97 67.01 335.03 67.01 402.03 67.01Z" id="a4dOIOrn7D"></path><path d="M353.03 123.73C443.19 123.73 516.27 196.81 516.27 286.97C516.27 332.83 516.27 307.17 516.27 353.03C516.27 443.19 443.19 516.27 353.03 516.27C307.17 516.27 332.83 516.27 286.97 516.27C196.81 516.27 123.73 443.19 123.73 353.03C123.73 307.17 123.73 332.83 123.73 286.97C123.73 196.81 196.81 123.73 286.97 123.73C332.83 123.73 307.17 123.73 353.03 123.73Z" id="a1YnqTYzg4"></path><path d="M358.48 193.13C407.29 193.13 446.87 232.71 446.87 281.52C446.87 314.59 446.87 325.41 446.87 358.48C446.87 407.29 407.29 446.87 358.48 446.87C325.41 446.87 314.59 446.87 281.52 446.87C232.71 446.87 193.13 407.29 193.13 358.48C193.13 325.41 193.13 314.59 193.13 281.52C193.13 232.71 232.71 193.13 281.52 193.13C314.59 193.13 325.41 193.13 358.48 193.13Z" id="a6JGCpBheS"></path></defs><g><g><g><use xlink:href="#d1sdzQCdtR" opacity="1" fill="#82c35f" fill-opacity="1"></use></g><g><use xlink:href="#a4dOIOrn7D" opacity="1" fill="#3c66e9" fill-opacity="0"></use><g><use xlink:href="#a4dOIOrn7D" opacity="1" fill-opacity="0" stroke="#ffce56" stroke-width="30" stroke-opacity="1"></use></g></g><g><use xlink:href="#a1YnqTYzg4" opacity="1" fill="#3b66e9" fill-opacity="0"></use><g><use xlink:href="#a1YnqTYzg4" opacity="1" fill-opacity="0" stroke="#ffdb84" stroke-width="30" stroke-opacity="1"></use></g></g><g><use xlink:href="#a6JGCpBheS" opacity="1" fill="#3b66e9" fill-opacity="0"></use><g><use xlink:href="#a6JGCpBheS" opacity="1" fill-opacity="0" stroke="#ffdb84" stroke-width="30" stroke-opacity="1"></use></g></g></g></g></svg>